#!OML:ASF E:\acrobat2\Project_11_07_03\Capture day 1\Session 1\Acrobat.ASF
:FULLY-SPECIFIED
:DEGREES
43
root 5.5244 18.3557 -16.0849 4.37025 -8.72005 -7.08278
lowerback 1.261 2.56825 -4.00707
upperback 1.87067 3.43793 -5.18558
thorax 1.30499 1.69846 -3.1003
lowerneck 5.96974 4.44624 -2.15527
upperneck -14.1628 5.58757 -1.45607
head -5.26456 2.94915 -0.452428
rclavicle -2.22639e-014 -1.90833e-014
rhumerus -40.4223 5.68063 -87.569
rradius 48.5988
rwrist 3.83664
rhand 1.11613 -46.3379
rfingers 7.12502
rthumb 26.659 -74.4807
lclavicle -2.22639e-014 -1.90833e-014
lhumerus -22.6695 -8.32718 71.1118
lradius 24.6241
lwrist 11.5875
lhand -13.1824 -15.1068
lfingers 7.12502
lthumb 12.9173 14.4734
rfemur -15.8573 -6.87742 19.5902
rtibia 57.4117
rfoot 8.70615 0.468732
rtoes 16.1807
lfemur -2.07748 -5.47758 -11.2763
ltibia -1.38305
lfoot -9.48423 9.09636
ltoes 34.8597
44
root 5.52892 18.3539 -16.082 4.30828 -8.70428 -7.05167
lowerback 1.19792 2.61396 -3.99103
upperback 1.81954 3.50101 -5.25577
thorax 1.29481 1.73103 -3.18036
lowerneck 5.83808 4.45669 -2.14057
upperneck -14.0898 5.60515 -1.47255
head -5.21862 2.95764 -0.456347
rclavicle -1.90833e-014 1.90833e-014
rhumerus -40.4971 5.77162 -87.8009
rradius 48.5013
rwrist 3.8754
rhand 1.1397 -46.1607
rfingers 7.12502
rthumb 26.6816 -74.3
lclavicle -1.90833e-014 1.90833e-014
lhumerus -22.6288 -8.39004 70.9812
lradius 24.8809
lwrist 11.6783
lhand -13.058 -14.8883
lfingers 7.12502
lthumb 13.0373 14.6843
rfemur -15.4613 -6.7852 19.5898
rtibia 56.7218
rfoot 9.22242 0.634862
rtoes 16.4901
lfemur -2.02464 -5.36638 -11.3217
ltibia -1.36304
lfoot -9.38363 9.00557
ltoes 34.6964
45
root 5.53327 18.3521 -16.0801 4.25304 -8.68918 -7.01349
lowerback 1.14515 2.66383 -3.96938
upperback 1.75446 3.56794 -5.33385
thorax 1.26561 1.76584 -3.27258
lowerneck 5.7176 4.46244 -2.12721
upperneck -14.0039 5.61737 -1.47882
head -5.17095 2.9628 -0.456619
rclavicle -4.01545e-014 1.90833e-014
rhumerus -40.5773 5.85379 -88.0405
rradius 48.3677
rwrist 3.91519
rhand 1.19442 -46.0072
rfingers 7.12502
rthumb 26.7339 -74.1385
lclavicle -4.01545e-014 1.90833e-014
lhumerus -22.6159 -8.45843 70.849
lradius 25.1461
lwrist 11.7632
lhand -12.9395 -14.6554
lfingers 7.12502
lthumb 13.1515 14.9098
rfemur -15.0564 -6.7247 19.5811
rtibia 55.9556
rfoot 9.6838 0.708519
rtoes 16.7926
lfemur -1.99201 -5.22897 -11.372
ltibia -1.32895
lfoot -9.27717 8.88494
ltoes 34.5786
46
root 5.53743 18.3504 -16.0793 4.20714 -8.67916 -6.97941
lowerback 1.09088 2.71636 -3.93957
upperback 1.68159 3.638 -5.41036
thorax 1.22992 1.80234 -3.36784
lowerneck 5.6212 4.46361 -2.10779
upperneck -13.9353 5.62118 -1.49964
head -5.13214 2.96456 -0.462717
rclavicle 2.14687e-014 -2.54444e-014
rhumerus -40.6494 5.94006 -88.2786
rradius 48.1973
rwrist 3.94803
rhand 1.25966 -45.9082
rfingers 7.12502
rthumb 26.7963 -74.03
lclavicle 2.14687e-014 -2.54444e-014
lhumerus -22.6243 -8.52418 70.7212
lradius 25.413
lwrist 11.8565
lhand -12.8332 -14.4271
lfingers 7.12502
lthumb 13.2539 15.1315
rfemur -14.6487 -6.68242 19.579
rtibia 55.1259
rfoot 10.0617 0.69384
rtoes 17.0562
lfemur -1.9814 -5.0489 -11.4098
ltibia -1.27791
lfoot -9.15326 8.72961
ltoes 34.5019
47
root 5.54147 18.3485 -16.0794 4.17067 -8.67846 -6.94533
lowerback 1.02306 2.7694 -3.90982
upperback 1.60933 3.70975 -5.48163
thorax 1.20243 1.83952 -3.4569
lowerneck 5.53581 4.46498 -2.08418
upperneck -13.8855 5.62137 -1.54809
head -5.10011 2.9662 -0.478347
rclavicle 2.50469e-014 6.36111e-014
rhumerus -40.7032 6.04591 -88.5095
rradius 47.991
rwrist 3.98687
rhand 1.34523 -45.8928
rfingers 7.12502
rthumb 26.8782 -74.002
lclavicle 2.50469e-014 6.36111e-014
lhumerus -22.6333 -8.57389 70.6017
lradius 25.6605
lwrist 11.958
lhand -12.7543 -14.2535
lfingers 7.12502
lthumb 13.33 15.3001
rfemur -14.2444 -6.64547 19.5786
rtibia 54.2475
rfoot 10.3045 0.604767
rtoes 17.2288
lfemur -1.988 -4.82508 -11.4403
ltibia -1.21732
lfoot -8.99693 8.55114
ltoes 34.4504
48
root 5.54554 18.3466 -16.0807 4.14157 -8.68996 -6.904
lowerback 0.936836 2.82242 -3.89017
upperback 1.54566 3.78336 -5.54797
thorax 1.19347 1.87726 -3.53394
lowerneck 5.45269 4.46994 -2.05998
upperneck -13.8589 5.6229 -1.6208
head -5.07492 2.97013 -0.502042
rclavicle 2.8625e-014 -5.40694e-014
rhumerus -40.7364 6.17882 -88.732
rradius 47.7604
rwrist 4.03548
rhand 1.46022 -45.9825
rfingers 7.12502
rthumb 26.9883 -74.0747
lclavicle 2.8625e-014 -5.40694e-014
lhumerus -22.6205 -8.60332 70.4911
lradius 25.8835
lwrist 12.0721
lhand -12.7018 -14.1339
lfingers 7.12502
lthumb 13.3806 15.4164
rfemur -13.8431 -6.61312 19.5689
rtibia 53.3254
rfoot 10.3638 0.49214
rtoes 17.2392
lfemur -2.00467 -4.58045 -11.4756
ltibia -1.15626
lfoot -8.8166 8.37259
ltoes 34.3787
49
root 5.54981 18.3447 -16.083 4.11304 -8.71347 -6.85453
lowerback 0.838231 2.8757 -3.88299
upperback 1.49431 3.85902 -5.60827
thorax 1.20323 1.91565 -3.59664
lowerneck 5.37587 4.47491 -2.0287
upperneck -13.8638 5.62089 -1.72176
head -5.0595 2.97394 -0.536013
rclavicle 5.96354e-015 3.18055e-015
rhumerus -40.7546 6.33775 -88.9446
rradius 47.511
rwrist 4.08936
rhand 1.57015 -46.1204
rfingers 7.12502
rthumb 27.0934 -74.1963
lclavicle 5.96354e-015 3.18055e-015
lhumerus -22.5802 -8.60689 70.3897
lradius 26.0912
lwrist 12.1922
lhand -12.6543 -14.0191
lfingers 7.12502
lthumb 13.4264 15.5282
rfemur -13.4302 -6.59459 19.5457
rtibia 52.3501
rfoot 10.2347 0.418807
rtoes 17.0897
lfemur -2.01918 -4.34938 -11.5227
ltibia -1.10059
lfoot -8.64051 8.21071
ltoes 34.2716
50
root 5.55436 18.343 -16.0862 4.08006 -8.7466 -6.79254
lowerback 0.738028 2.92932 -3.88745
upperback 1.4502 3.93573 -5.66743
thorax 1.22072 1.95432 -3.65125
lowerneck 5.32037 4.47346 -1.96772
upperneck -13.9042 5.60652 -1.86522
head -5.05651 2.97313 -0.588207
rclavicle -3.97569e-016 4.77083e-014
rhumerus -40.7634 6.51235 -89.1526
rradius 47.2355
rwrist 4.16098
rhand 1.66257 -46.2344
rfingers 7.12502
rthumb 27.1818 -74.2965
lclavicle -3.97569e-016 4.77083e-014
lhumerus -22.5307 -8.58158 70.2932
lradius 26.3013
lwrist 12.3032
lhand -12.6056 -13.8751
lfingers 7.12502
lthumb 13.4734 15.6691
rfemur -12.9971 -6.60109 19.5015
rtibia 51.3184
rfoot 9.9532 0.405192
rtoes 17.0185
lfemur -2.02316 -4.1576 -11.5908
ltibia -1.055
lfoot -8.49875 8.06926
ltoes 34.1921
51
root 5.55906 18.3413 -16.0908 4.04427 -8.78651 -6.72277
lowerback 0.653348 2.98591 -3.89239
upperback 1.40075 4.01483 -5.73057
thorax 1.22451 1.9943 -3.71063
lowerneck 5.29505 4.46181 -1.8787
upperneck -13.9636 5.57722 -2.03006
head -5.06299 2.9651 -0.651703
rclavicle -3.97569e-016 -9.54166e-015
rhumerus -40.7732 6.68474 -89.3601
rradius 46.9318
rwrist 4.25829
rhand 1.75026 -46.2855
rfingers 7.12502
rthumb 27.2657 -74.3345
lclavicle -3.97569e-016 -9.54166e-015
lhumerus -22.5011 -8.53297 70.1982
lradius 26.5347
lwrist 12.3866
lhand -12.5586 -13.7208
lfingers 7.12502
lthumb 13.5186 15.8204
rfemur -12.553 -6.63588 19.4417
rtibia 50.2469
rfoot 9.58362 0.43316
rtoes 17.4121
lfemur -2.02362 -4.00422 -11.6731
ltibia -1.01141
lfoot -8.40228 7.94146
ltoes 34.1291
52
root 5.56374 18.3396 -16.0973 4.01336 -8.8194 -6.65703
lowerback 0.591833 3.04296 -3.88563
upperback 1.34026 4.09197 -5.79433
thorax 1.20482 2.03362 -3.77871
lowerneck 5.26756 4.44685 -1.79981
upperneck -13.9868 5.54709 -2.16332
head -5.05922 2.95487 -0.703166
rclavicle -2.70347e-014 6.36111e-015
rhumerus -40.7879 6.85507 -89.562
rradius 46.6091
rwrist 4.36327
rhand 1.82479 -46.2571
rfingers 7.12502
rthumb 27.337 -74.2948
lclavicle -2.70347e-014 6.36111e-015
lhumerus -22.5025 -8.45883 70.1076
lradius 26.7927
lwrist 12.4255
lhand -12.5151 -13.5953
lfingers 7.12502
lthumb 13.5606 15.9431
rfemur -12.1179 -6.69972 19.3826
rtibia 49.1687
rfoot 9.21039 0.467368
rtoes 18.6507
lfemur -2.03877 -3.87159 -11.7511
ltibia -0.957535
lfoot -8.32968 7.81511
ltoes 34.0475
53
root 5.56822 18.3377 -16.106 3.99461 -8.82915 -6.60111
lowerback 0.545579 3.09161 -3.86592
upperback 1.27463 4.15632 -5.85322
thorax 1.17146 2.06677 -3.85003
lowerneck 5.22149 4.43833 -1.74662
upperneck -13.9715 5.52975 -2.25436
head -5.04242 2.94918 -0.73714
rclavicle 2.70347e-014 5.08889e-014
rhumerus -40.7954 7.03843 -89.7536
rradius 46.278
rwrist 4.45789
rhand 1.86349 -46.1484
rfingers 7.12502
rthumb 27.374 -74.1803
lclavicle 2.70347e-014 5.08889e-014
lhumerus -22.5211 -8.35398 70.0228
lradius 27.063
lwrist 12.4336
lhand -12.4786 -13.5124
lfingers 7.12502
lthumb 13.5957 16.0237
rfemur -11.7162 -6.7941 19.3333
rtibia 48.1305
rfoot 8.89228 0.485388
rtoes 20.8069
lfemur -2.08381 -3.75214 -11.8143
ltibia -0.891936
lfoot -8.25528 7.68972
ltoes 33.949
54
root 5.5724 18.3355 -16.1171 3.98747 -8.81343 -6.55833
lowerback 0.506838 3.12501 -3.84004
upperback 1.21473 4.20011 -5.89985
thorax 1.1386 2.0896 -3.91236
lowerneck 5.1629 4.44254 -1.71528
upperneck -13.9623 5.52949 -2.33214
head -5.02643 2.95216 -0.764321
rclavicle 1.59028e-015 -1.27222e-014
rhumerus -40.7814 7.24829 -89.9312
rradius 45.9489
rwrist 4.54206
rhand 1.85994 -45.9938
rfingers 7.12502
rthumb 27.3706 -74.0262
lclavicle 1.59028e-015 -1.27222e-014
lhumerus -22.5352 -8.20532 69.9442
lradius 27.33
lwrist 12.448
lhand -12.4424 -13.4864
lfingers 7.12502
lthumb 13.6306 16.0473
rfemur -11.3642 -6.91174 19.298
rtibia 47.1891
rfoot 8.63782 0.494526
rtoes 23.5021
lfemur -2.15909 -3.64689 -11.8578
ltibia -0.818602
lfoot -8.16979 7.57225
ltoes 33.846
55
root 5.57649 18.3333 -16.1299 3.98432 -8.77836 -6.52504
lowerback 0.469111 3.14201 -3.81633
upperback 1.17041 4.22297 -5.93003
thorax 1.11903 2.10171 -3.95602
lowerneck 5.08607 4.46182 -1.70375
upperneck -13.9654 5.54715 -2.41539
head -5.01155 2.96531 -0.790777
rclavicle -1.07344e-014 3.18055e-014
rhumerus -40.7453 7.48376 -90.0894
rradius 45.6349
rwrist 4.62568
rhand 1.84074 -45.8503
rfingers 7.12502
rthumb 27.3523 -73.8857
lclavicle -1.07344e-014 3.18055e-014
lhumerus -22.534 -8.00929 69.8743
lradius 27.5807
lwrist 12.4989
lhand -12.4071 -13.5392
lfingers 7.12502
lthumb 13.6647 15.9922
rfemur -11.0638 -7.04315 19.269
rtibia 46.4008
rfoot 8.41495 0.523364
rtoes 26.1045
lfemur -2.24839 -3.55361 -11.8906
ltibia -0.749441
lfoot -8.07802 7.46781
ltoes 33.8767
